<mxfile host="app.diagrams.net" modified="2025-08-21T14:03:23.749Z" agent="5.0" version="24.7.17" etag="generated">
  <diagram name="Host Frontend Flow" id="host-frontend-flow">
    
<mxGraphModel dx="1422" dy="794" grid="1" gridSize="10" guides="1" tooltips="1" connect="1" arrows="1" fold="1" page="1" pageScale="1" pageWidth="827" pageHeight="1169">
  <root>
    <mxCell id="0"/>
    <mxCell id="1" parent="0"/>
    
    <!-- Start State -->
    <mxCell id="start" value="Landing Page" style="ellipse;whiteSpace=wrap;html=1;fillColor=#4F46E5;fontColor=white;strokeColor=white;" vertex="1" parent="1">
      <mxGeometry x="360" y="40" width="120" height="60" as="geometry"/>
    </mxCell>
    
    <!-- Join Game -->
    <mxCell id="join" value="Join Game\n(Enter game ID)" style="rounded=1;whiteSpace=wrap;html=1;fillColor=#4F46E5;fontColor=white;strokeColor=white;" vertex="1" parent="1">
      <mxGeometry x="360" y="140" width="120" height="60" as="geometry"/>
    </mxCell>
    
    <!-- Lobby Entry -->
    <mxCell id="lobby_entry" value="Lobby Entry\n(As Host)" style="rounded=1;whiteSpace=wrap;html=1;fillColor=#4F46E5;fontColor=white;strokeColor=white;" vertex="1" parent="1">
      <mxGeometry x="360" y="240" width="120" height="60" as="geometry"/>
    </mxCell>
    
    <!-- Video Room Setup -->
    <mxCell id="video_setup" value="Video Room Setup\n(Create/join room)" style="rounded=1;whiteSpace=wrap;html=1;fillColor=#4F46E5;fontColor=white;strokeColor=white;" vertex="1" parent="1">
      <mxGeometry x="360" y="340" width="120" height="60" as="geometry"/>
    </mxCell>
    
    <!-- Quiz Hosting -->
    <mxCell id="quiz_host" value="Quiz Hosting\n(Control segments)" style="rounded=1;whiteSpace=wrap;html=1;fillColor=#4F46E5;fontColor=white;strokeColor=white;" vertex="1" parent="1">
      <mxGeometry x="200" y="440" width="120" height="60" as="geometry"/>
    </mxCell>
    
    <!-- Segment Control -->
    <mxCell id="segment_ctrl" value="Segment Control\n(BELL/SING/REMO)" style="rounded=1;whiteSpace=wrap;html=1;fillColor=#4F46E5;fontColor=white;strokeColor=white;" vertex="1" parent="1">
      <mxGeometry x="520" y="440" width="120" height="60" as="geometry"/>
    </mxCell>
    
    <!-- Score Management -->
    <mxCell id="score_mgmt" value="Score Management\n(Update points)" style="rounded=1;whiteSpace=wrap;html=1;fillColor=#4F46E5;fontColor=white;strokeColor=white;" vertex="1" parent="1">
      <mxGeometry x="200" y="540" width="120" height="60" as="geometry"/>
    </mxCell>
    
    <!-- Timer Control -->
    <mxCell id="timer_ctrl" value="Timer Control\n(Start/stop/reset)" style="rounded=1;whiteSpace=wrap;html=1;fillColor=#4F46E5;fontColor=white;strokeColor=white;" vertex="1" parent="1">
      <mxGeometry x="520" y="540" width="120" height="60" as="geometry"/>
    </mxCell>
    
    <!-- End State -->
    <mxCell id="end" value="Final Scores\n& Cleanup" style="ellipse;whiteSpace=wrap;html=1;fillColor=#059669;fontColor=white;strokeColor=white;" vertex="1" parent="1">
      <mxGeometry x="360" y="640" width="120" height="60" as="geometry"/>
    </mxCell>
    
    <!-- Transitions -->
    <mxCell edge="1" parent="1" source="start" target="join">
      <mxGeometry relative="1" as="geometry"/>
    </mxCell>
    <mxCell edge="1" parent="1" source="join" target="lobby_entry">
      <mxGeometry relative="1" as="geometry"/>
    </mxCell>
    <mxCell edge="1" parent="1" source="lobby_entry" target="video_setup">
      <mxGeometry relative="1" as="geometry"/>
    </mxCell>
    <mxCell edge="1" parent="1" source="video_setup" target="quiz_host">
      <mxGeometry relative="1" as="geometry"/>
    </mxCell>
    <mxCell edge="1" parent="1" source="video_setup" target="segment_ctrl">
      <mxGeometry relative="1" as="geometry"/>
    </mxCell>
    <mxCell edge="1" parent="1" source="quiz_host" target="score_mgmt">
      <mxGeometry relative="1" as="geometry"/>
    </mxCell>
    <mxCell edge="1" parent="1" source="segment_ctrl" target="timer_ctrl">
      <mxGeometry relative="1" as="geometry"/>
    </mxCell>
    <mxCell edge="1" parent="1" source="score_mgmt" target="end">
      <mxGeometry relative="1" as="geometry"/>
    </mxCell>
    <mxCell edge="1" parent="1" source="timer_ctrl" target="end">
      <mxGeometry relative="1" as="geometry"/>
    </mxCell>
    
  </root>
</mxGraphModel>
  </diagram>
</mxfile>